#!OML:ASF H:\LiuWeirdWalks\Patient Classification 1\Patient 1\Session 1\male.ASF
:FULLY-SPECIFIED
:DEGREES
1639
root 0.75255 18.1107 36.114 4.75597 7.90906 3.1473
lowerback -2.0258 2.79637 0.86829
upperback 0.33632 3.7074 -0.0623959
thorax 1.53743 1.85969 -0.424198
lowerneck -20.0388 -2.97954 1.4861
upperneck 24.6047 -3.83541 -2.99924
head 11.2073 -1.97067 -1.9304
rclavicle 2.50966e-014 -7.95139e-016
rhumerus -38.7268 -16.3282 -72.688
rradius 35.3578
rwrist -8.51542
rhand -16.8211 -3.36585
rfingers 7.12502
rthumb 9.40794 -33.1359
lclavicle 2.50966e-014 -7.95139e-016
lhumerus -36.4019 -16.3074 92.2823
lradius 38.3081
lwrist 15.9329
lhand -13.9696 -4.25868
lfingers 7.12502
lthumb 12.1584 25.368
rfemur -12.7706 -3.83272 21.1643
rtibia 30.6806
rfoot -14.083 -19.766
rtoes -1.51797
lfemur -14.2083 -3.34296 -19.8585
ltibia 27.7345
lfoot -8.33802 9.03539
ltoes -10.4082
1640
root 0.766912 18.1089 36.1341 4.83921 7.87897 3.08241
lowerback -2.21623 2.81551 0.893849
upperback 0.295874 3.73047 -0.0603428
thorax 1.60445 1.8714 -0.426434
lowerneck -20.0135 -3.00036 1.5078
upperneck 24.6946 -3.89025 -2.93326
head 11.2358 -1.98377 -1.91987
rclavicle 7.00716e-014 4.77083e-015
rhumerus -38.7459 -16.3599 -72.6898
rradius 35.3506
rwrist -8.52384
rhand -16.8469 -3.31478
rfingers 7.12502
rthumb 9.38308 -33.0859
lclavicle 7.00716e-014 4.77083e-015
lhumerus -36.4772 -16.4389 92.3162
lradius 38.3383
lwrist 15.9116
lhand -13.9526 -4.26913
lfingers 7.12502
lthumb 12.1748 25.3566
rfemur -12.8409 -3.77445 21.2042
rtibia 30.762
rfoot -14.1168 -19.8293
rtoes -1.59633
lfemur -14.0308 -3.44307 -19.8645
ltibia 27.4154
lfoot -8.25459 9.30161
ltoes -10.0907
1641
root 0.780203 18.109 36.1567 5.06397 7.85715 3.04901
lowerback -2.47262 2.98088 1.00043
upperback 0.205723 3.9465 -0.119479
thorax 1.67026 1.98028 -0.525999
lowerneck -20.1619 -3.19653 1.28181
upperneck 24.8884 -4.15562 -2.71772
head 11.3418 -2.0945 -1.85226
rclavicle -9.98893e-015 -1.90833e-014
rhumerus -38.926 -16.7853 -72.4716
rradius 35.3911
rwrist -8.54582
rhand -16.8811 -3.28848
rfingers 7.12502
rthumb 9.35007 -33.0611
lclavicle -9.98893e-015 -1.90833e-014
lhumerus -36.516 -16.9989 92.5307
lradius 38.3276
lwrist 15.9252
lhand -13.955 -4.29027
lfingers 7.12502
lthumb 12.1725 25.3356
rfemur -13.0625 -3.7111 21.2222
rtibia 30.8468
rfoot -14.1384 -19.901
rtoes -1.67678
lfemur -14 -3.53068 -19.8913
ltibia 27.069
lfoot -8.21778 9.56926
ltoes -9.9333
1642
root 0.79416 18.1091 36.1788 5.24332 7.83543 3.01462
lowerback -2.70322 3.11617 1.08901
upperback 0.127812 4.1227 -0.172202
thorax 1.73274 2.06909 -0.610482
lowerneck -20.2668 -3.35701 1.10721
upperneck 25.0547 -4.37789 -2.53595
head 11.4294 -2.18526 -1.79749
rclavicle -2.04003e-014 -1.35174e-014
rhumerus -39.0769 -17.1325 -72.3054
rradius 35.4098
rwrist -8.58618
rhand -16.9344 -3.27343
rfingers 7.12502
rthumb 9.29863 -33.0484
lclavicle -2.04003e-014 -1.35174e-014
lhumerus -36.5592 -17.4547 92.6969
lradius 38.3103
lwrist 15.9242
lhand -13.9764 -4.32483
lfingers 7.12502
lthumb 12.1518 25.3022
rfemur -13.2332 -3.65464 21.2343
rtibia 30.9283
rfoot -14.1726 -19.9615
rtoes -1.73987
lfemur -13.9181 -3.60668 -19.9205
ltibia 26.7044
lfoot -8.20452 9.84369
ltoes -9.86852
1643
root 0.808339 18.1094 36.2009 5.39759 7.82049 2.98687
lowerback -2.91427 3.23574 1.15585
upperback 0.0543807 4.27847 -0.219679
thorax 1.78718 2.14747 -0.678536
lowerneck -20.3536 -3.50489 0.936887
upperneck 25.2094 -4.58185 -2.36158
head 11.5103 -2.2682 -1.7428
rclavicle 1.16538e-014 1.11319e-014
rhumerus -39.2258 -17.4757 -72.1382
rradius 35.4097
rwrist -8.55656
rhand -16.966 -3.24298
rfingers 7.12502
rthumb 9.26815 -33.0193
lclavicle 1.16538e-014 1.11319e-014
lhumerus -36.5997 -17.8465 92.8428
lradius 38.2799
lwrist 15.921
lhand -14.0227 -4.37263
lfingers 7.12502
lthumb 12.1072 25.2571
rfemur -13.3695 -3.60772 21.2358
rtibia 31.0023
rfoot -14.215 -20.017
rtoes -1.80201
lfemur -13.806 -3.67852 -19.9581
ltibia 26.334
lfoot -8.19189 10.1197
ltoes -9.75071
1644
root 0.823075 18.109 36.2214 5.47492 7.81349 2.94839
lowerback -3.07703 3.28573 1.18019
upperback 0.00281876 4.34278 -0.238663
thorax 1.83003 2.17972 -0.699997
lowerneck -20.3679 -3.57564 0.866456
upperneck 25.3287 -4.69066 -2.25317
head 11.5616 -2.30788 -1.71153
rclavicle -3.7123e-014 3.18055e-015
rhumerus -39.3091 -17.6704 -72.0578
rradius 35.3789
rwrist -8.50874
rhand -16.9939 -3.21216
rfingers 7.12502
rthumb 9.24122 -32.9896
lclavicle -3.7123e-014 3.18055e-015
lhumerus -36.6462 -18.0242 92.9012
lradius 38.2423
lwrist 15.9069
lhand -14.0911 -4.42146
lfingers 7.12502
lthumb 12.0412 25.2121
rfemur -13.4132 -3.57202 21.2418
rtibia 31.0552
rfoot -14.2597 -20.065
rtoes -1.85733
lfemur -13.6159 -3.75126 -19.9893
ltibia 25.9782
lfoot -8.1934 10.3916
ltoes -9.61256
1645
root 0.838647 18.1077 36.2402 5.44918 7.81184 2.89373
lowerback -3.18737 3.24061 1.15035
upperback -0.0131631 4.28193 -0.215312
thorax 1.87001 2.14896 -0.656439
lowerneck -20.2842 -3.54117 0.931157
upperneck 25.3828 -4.66795 -2.23764
head 11.565 -2.28881 -1.7122
rclavicle -6.68165e-014 1.19271e-014
rhumerus -39.2959 -17.6409 -72.1061
rradius 35.3202
rwrist -8.46323
rhand -17.0266 -3.18004
rfingers 7.12502
rthumb 9.20965 -32.9589
lclavicle -6.68165e-014 1.19271e-014
lhumerus -36.6925 -17.8961 92.8347
lradius 38.2006
lwrist 15.8503
lhand -14.1599 -4.49782
lfingers 7.12502
lthumb 11.975 25.1396
rfemur -13.335 -3.55201 21.2551
rtibia 31.0855
rfoot -14.3083 -20.0987
rtoes -1.91944
lfemur -13.3207 -3.83588 -20.0098
ltibia 25.6456
lfoot -8.21892 10.6531
ltoes -9.43214
1646
root 0.854571 18.1059 36.2569 5.36645 7.81696 2.83148
lowerback -3.25986 3.12102 1.06955
upperback -0.0117674 4.12356 -0.160376
thorax 1.8988 2.06895 -0.559317
lowerneck -20.1341 -3.41904 1.11827
upperneck 25.3881 -4.53431 -2.31368
head 11.5329 -2.22098 -1.74684
rclavicle -4.34096e-014 -3.18055e-015
rhumerus -39.2121 -17.4588 -72.2444
rradius 35.2362
rwrist -8.414
rhand -17.0704 -3.11216
rfingers 7.12502
rthumb 9.16737 -32.8929
lclavicle -4.34096e-014 -3.18055e-015
lhumerus -36.7411 -17.5208 92.6682
lradius 38.1602
lwrist 15.752
lhand -14.2049 -4.55647
lfingers 7.12502
lthumb 11.9315 25.0835
rfemur -13.1873 -3.54052 21.2722
rtibia 31.0946
rfoot -14.3501 -20.1291
rtoes -1.98247
lfemur -12.9801 -3.93454 -20.0234
ltibia 25.3369
lfoot -8.25689 10.8958
ltoes -9.21068
1647
root 0.870354 18.1045 36.2728 5.27214 7.83166 2.78078
lowerback -3.31223 2.98926 0.972171
upperback -0.0110487 3.94998 -0.107462
thorax 1.91515 1.98117 -0.45722
lowerneck -19.975 -3.2936 1.30451
upperneck 25.3964 -4.39463 -2.3909
head 11.5008 -2.15054 -1.78092
rclavicle -1.4238e-014 6.36111e-015
rhumerus -39.1348 -17.2811 -72.3903
rradius 35.1572
rwrist -8.38945
rhand -17.1178 -3.06581
rfingers 7.12502
rthumb 9.12169 -32.8485
lclavicle -1.4238e-014 6.36111e-015
lhumerus -36.7899 -17.1066 92.4769
lradius 38.1092
lwrist 15.6295
lhand -14.2088 -4.59227
lfingers 7.12502
lthumb 11.9277 25.0479
rfemur -13.02 -3.53897 21.2755
rtibia 31.0905
rfoot -14.3873 -20.1565
rtoes -2.02255
lfemur -12.6393 -4.04063 -20.0465
ltibia 25.0455
lfoot -8.28235 11.1104
ltoes -8.97646
1648
root 0.887116 18.1039 36.2875 5.18676 7.83353 2.76057
lowerback -3.38067 2.82852 0.830308
upperback -0.0110394 3.73951 -0.0574638
thorax 1.93747 1.87457 -0.334569
lowerneck -19.7819 -3.12942 1.54976
upperneck 25.3889 -4.20579 -2.51142
head 11.455 -2.05811 -1.83222
rclavicle -3.55825e-014 9.54166e-015
rhumerus -39.0301 -17.0439 -72.578
rradius 35.0573
rwrist -8.33965
rhand -17.148 -3.01736
rfingers 7.12502
rthumb 9.09258 -32.8014
lclavicle -3.55825e-014 9.54166e-015
lhumerus -36.8425 -16.5864 92.2364
lradius 38.0564
lwrist 15.5371
lhand -14.2037 -4.61925
lfingers 7.12502
lthumb 11.9327 25.0207
rfemur -12.8581 -3.5422 21.2406
rtibia 31.08
rfoot -14.4191 -20.1686
rtoes -2.04427
lfemur -12.3126 -4.14959 -20.1029
ltibia 24.7607
lfoot -8.29862 11.3179
ltoes -8.74851
1649
root 0.902426 18.1057 36.3041 5.25371 7.83977 2.7688
lowerback -3.50779 2.80509 0.754561
upperback -0.0762304 3.71038 -0.0598307
thorax 1.93664 1.85911 -0.291731
lowerneck -19.7523 -3.13269 1.54404
upperneck 25.5024 -4.21661 -2.48373
head 11.4931 -2.05837 -1.82493
rclavicle -4.46272e-014 3.57812e-015
rhumerus -39.0954 -17.1546 -72.5458
rradius 34.9967
rwrist -8.2713
rhand -17.1435 -3.00514
rfingers 7.12502
rthumb 9.09688 -32.789
lclavicle -4.46272e-014 3.57812e-015
lhumerus -36.8865 -16.4486 92.1737
lradius 37.9792
lwrist 15.4846
lhand -14.1967 -4.60758
lfingers 7.12502
lthumb 11.9395 25.0319
rfemur -12.8585 -3.52982 21.1886
rtibia 31.0646
rfoot -14.4359 -20.1947
rtoes -2.05439
lfemur -12.158 -4.24928 -20.1705
ltibia 24.4818
lfoot -8.29378 11.4893
ltoes -8.53807
1650
root 0.918051 18.1082 36.321 5.29279 7.83485 2.80295
lowerback -3.59894 2.77734 0.648648
upperback -0.140432 3.67726 -0.0653984
thorax 1.91502 1.84145 -0.237587
lowerneck -19.717 -3.12526 1.55232
upperneck 25.6195 -4.21104 -2.47597
head 11.531 -2.05247 -1.82475
rclavicle 2.66868e-014 -7.15625e-015
rhumerus -39.1667 -17.2362 -72.5231
rradius 34.9243
rwrist -8.21541
rhand -17.1206 -3.04046
rfingers 7.12502
rthumb 9.11902 -32.8233
lclavicle 2.66868e-014 -7.15625e-015
lhumerus -36.9397 -16.2907 92.1073
lradius 37.8907
lwrist 15.4592
lhand -14.1862 -4.55652
lfingers 7.12502
lthumb 11.9495 25.0824
rfemur -12.8211 -3.51131 21.1031
rtibia 31.0416
rfoot -14.4598 -20.2157
rtoes -2.06096
lfemur -11.9735 -4.34354 -20.2675
ltibia 24.2119
lfoot -8.28402 11.6482
ltoes -8.36044
1651
root 0.933379 18.1117 36.3373 5.34207 7.82806 2.81698
lowerback -3.69075 2.7559 0.567836
upperback -0.216938 3.65163 -0.0695178
thorax 1.88279 1.82778 -0.195891
lowerneck -19.6747 -3.11863 1.56213
upperneck 25.7409 -4.20491 -2.47536
head 11.5691 -2.04704 -1.82731
rclavicle -2.46245e-014 -4.37326e-015
rhumerus -39.2539 -17.325 -72.4946
rradius 34.8391
rwrist -8.1333
rhand -17.0735 -3.08676
rfingers 7.12502
rthumb 9.16444 -32.8676
lclavicle -2.46245e-014 -4.37326e-015
lhumerus -37.0032 -16.1436 92.0457
lradius 37.8023
lwrist 15.4725
lhand -14.1814 -4.48858
lfingers 7.12502
lthumb 11.9542 25.1501
rfemur -12.7987 -3.47637 21.0412
rtibia 31.0114
rfoot -14.4786 -20.2474
rtoes -2.06843
lfemur -11.818 -4.4196 -20.3373
ltibia 23.9581
lfoot -8.27379 11.7766
ltoes -8.1922
1652
root 0.948215 18.1153 36.3528 5.37097 7.82427 2.79832
lowerback -3.75573 2.73202 0.513518
upperback -0.291652 3.62166 -0.0621016
thorax 1.83832 1.81219 -0.158741
lowerneck -19.6266 -3.10417 1.58556
upperneck 25.8493 -4.18711 -2.49137
head 11.6006 -2.03741 -1.83601
rclavicle 9.93923e-015 9.93923e-015
rhumerus -39.3352 -17.3938 -72.477
rradius 34.7399
rwrist -8.0526
rhand -17.0167 -3.15368
rfingers 7.12502
rthumb 9.21922 -32.9321
lclavicle 9.93923e-015 9.93923e-015
lhumerus -37.0621 -15.9756 91.9731
lradius 37.7006
lwrist 15.4435
lhand -14.1688 -4.4137
lfingers 7.12502
lthumb 11.9663 25.2243
rfemur -12.7536 -3.43945 21.0174
rtibia 30.9657
rfoot -14.4852 -20.2867
rtoes -2.08638
lfemur -11.6619 -4.46914 -20.3684
ltibia 23.7288
lfoot -8.26992 11.8679
ltoes -8.06906
1653
root 0.962972 18.1195 36.3671 5.43889 7.81536 2.7789
lowerback -3.85868 2.72649 0.485098
upperback -0.364263 3.61516 -0.0689426
thorax 1.81999 1.80861 -0.147205
lowerneck -19.5993 -3.1083 1.58695
upperneck 25.9411 -4.19378 -2.4901
head 11.6302 -2.03886 -1.83848
rclavicle 3.65267e-015 8.74653e-015
rhumerus -39.4045 -17.4804 -72.4733
rradius 34.6417
rwrist -8.03604
rhand -16.9944 -3.20435
rfingers 7.12502
rthumb 9.24072 -32.9819
lclavicle 3.65267e-015 8.74653e-015
lhumerus -37.0844 -15.8563 91.9005
lradius 37.5815
lwrist 15.3966
lhand -14.1526 -4.3576
lfingers 7.12502
lthumb 11.9819 25.2795
rfemur -12.7498 -3.40602 20.9974
rtibia 30.902
rfoot -14.472 -20.3188
rtoes -2.1211
lfemur -11.5741 -4.49127 -20.3938
ltibia 23.5368
lfoot -8.26223 11.9283
ltoes -7.99549
